<?xml version="1.0" standalone="no"?>
<!DOCTYPE svg PUBLIC "-//W3C//DTD SVG 20010904//EN"
 "http://www.w3.org/TR/2001/REC-SVG-20010904/DTD/svg10.dtd">
<svg version="1.0" xmlns="http://www.w3.org/2000/svg"
 width="70.000000pt" height="70.000000pt" viewBox="0 0 70.000000 70.000000"
 preserveAspectRatio="xMidYMid meet">
<metadata>
Created by potrace 1.14, written by Peter Selinger 2001-2017
</metadata>
<g transform="translate(0.000000,70.000000) scale(0.100000,-0.100000)"
fill="#000000" stroke="none">
<path d="M59 698 c-1 -2 -2 -159 -3 -351 l-1 -347 240 0 c135 0 234 4 227 9
-11 7 -11 9 2 14 9 4 16 1 16 -5 0 -6 11 1 24 15 13 14 25 24 27 22 2 -1 10 3
17 11 7 8 10 14 6 14 -3 0 -1 6 5 13 6 8 13 24 15 38 3 13 5 24 6 24 10 0 2
86 -10 105 -11 18 -11 22 -1 16 8 -6 7 1 -4 18 -10 14 -21 26 -26 26 -5 0 -9
8 -9 18 0 14 -2 15 -10 2 -8 -13 -14 -8 -12 11 1 4 -7 6 -16 5 -9 0 -18 2 -19
7 -6 17 -2 27 12 27 8 0 15 5 15 11 0 5 5 7 10 4 6 -3 10 1 10 9 0 8 5 18 12
22 7 5 8 3 3 -6 -5 -9 -4 -11 4 -6 6 4 9 11 6 16 -3 5 -1 12 5 15 6 4 8 15 5
25 -3 10 -1 21 4 24 5 4 6 18 2 34 -5 15 -7 35 -6 44 2 9 -6 26 -17 37 -10 12
-16 26 -12 33 4 7 3 8 -4 4 -7 -4 -12 -2 -12 4 0 6 -5 8 -10 5 -6 -3 -10 -2
-10 3 0 6 -9 8 -20 5 -14 -4 -20 0 -20 10 0 14 -29 16 -225 17 -124 0 -225 -1
-226 -2z m196 -97 c-2 -4 2 -8 10 -8 8 0 12 4 9 9 -3 4 0 8 5 8 6 0 11 -6 12
-12 0 -10 2 -10 6 0 6 14 33 16 33 2 0 -5 5 -10 11 -10 5 0 7 5 4 10 -9 14 8
13 23 -2 9 -9 15 -9 24 0 9 9 15 7 25 -6 9 -10 12 -11 7 -2 -7 12 -5 13 8 3 8
-7 18 -10 21 -7 4 4 4 -3 2 -15 -2 -12 0 -19 6 -16 10 7 10 6 13 -48 2 -27 -4
-45 -20 -62 -12 -13 -25 -21 -28 -18 -3 4 -6 2 -6 -3 0 -6 -23 -10 -51 -10
-28 1 -53 -2 -56 -7 -2 -4 -10 -4 -16 0 -15 9 -49 9 -64 0 -6 -4 -18 4 -27 18
-9 14 -12 25 -6 25 7 0 7 7 -1 21 -8 16 -8 20 1 14 9 -6 9 -2 1 14 -9 16 -9
21 1 21 9 0 9 3 -2 10 -13 9 -13 10 0 10 9 0 11 3 5 8 -13 9 -13 22 2 47 7 11
13 14 13 7 0 -7 5 -10 10 -7 6 4 8 11 5 16 -3 5 1 6 9 3 9 -3 14 -9 11 -13z
m70 -272 c-8 -12 22 -18 34 -6 8 8 11 8 11 -2 0 -11 3 -11 17 0 13 11 17 11
20 2 3 -7 11 -13 19 -13 8 0 27 -12 42 -26 15 -15 20 -23 12 -20 -8 4 -4 -2 9
-13 17 -16 19 -21 7 -21 -12 0 -14 -5 -7 -24 7 -17 5 -31 -9 -54 -10 -16 -16
-34 -12 -38 4 -4 1 -4 -7 1 -8 4 -17 2 -22 -6 -6 -10 -9 -11 -9 -1 0 6 -5 12
-11 12 -5 0 -7 -5 -3 -12 5 -8 0 -9 -14 -6 -12 4 -22 2 -22 -3 0 -5 -7 -9 -15
-9 -8 0 -15 5 -15 11 0 5 -5 7 -10 4 -6 -4 -8 -10 -5 -15 3 -4 -4 -6 -15 -3
-11 3 -23 10 -26 15 -3 5 -15 1 -27 -9 -11 -10 -17 -13 -14 -6 4 6 3 14 -3 18
-5 3 -10 0 -10 -7 0 -10 -2 -10 -9 0 -4 8 -12 14 -17 15 -5 1 -8 5 -7 9 2 5
-2 8 -7 8 -6 0 -10 5 -10 11 0 5 5 7 11 3 8 -5 8 -1 0 14 -8 14 -8 23 -1 27 7
5 8 11 1 19 -6 7 -6 17 -1 26 5 8 5 21 0 30 -6 11 -4 25 7 40 13 18 13 21 2
15 -12 -7 -12 -6 0 6 11 12 14 12 18 0 5 -11 7 -11 14 0 6 10 9 11 9 2 0 -7 5
-13 11 -13 5 0 7 5 4 10 -4 7 3 8 21 4 17 -4 25 -3 21 3 -3 5 0 10 8 10 8 0
12 -4 10 -8z"/>
</g>
</svg>
